<svg width="200" height="200" viewBox="0 0 200 200" xmlns="http://www.w3.org/2000/svg" role="img">
<title>Sikh girl avatar with teal chunni</title>
<desc>Cartoon avatar of a young Sikh girl with her head covered by a teal chunni, smiling</desc>
<circle cx="100" cy="150" r="46" fill="#7F77DD"/>
<path d="M30 90 Q20 150 38 178 Q46 182 44 160 Q40 130 42 95 Z" fill="#1D9E75"/>
<path d="M170 90 Q180 150 162 178 Q154 182 156 160 Q160 130 158 95 Z" fill="#1D9E75"/>
<circle cx="40" cy="112" r="9" fill="#C68863"/>
<circle cx="160" cy="112" r="9" fill="#C68863"/>
<circle cx="100" cy="112" r="62" fill="#C68863"/>
<path d="M36 106 Q30 44 100 38 Q170 44 164 106 Q168 60 100 52 Q32 60 36 106 Z" fill="#1D9E75"/>
<path d="M36 92 Q100 62 164 92 L164 80 Q100 52 36 80 Z" fill="#0F6E56"/>
<circle cx="80" cy="112" r="8" fill="#fff" stroke="#1E1712" stroke-width="1.5"/>
<circle cx="80" cy="112" r="4" fill="#1E1712"/>
<circle cx="120" cy="112" r="8" fill="#fff" stroke="#1E1712" stroke-width="1.5"/>
<circle cx="120" cy="112" r="4" fill="#1E1712"/>
<path d="M75 133 Q100 152 125 133 Q100 145 75 133 Z" fill="#6B3421"/>
</svg>
